<?xml version="1.0" encoding="utf-8"?>
<!-- Generator: Adobe Illustrator 22.1.0, SVG Export Plug-In . SVG Version: 6.00 Build 0)  -->
<svg version="1.1" id="Lag_1" xmlns="http://www.w3.org/2000/svg" xmlns:xlink="http://www.w3.org/1999/xlink" x="0px" y="0px"
	 viewBox="0 0 141.7 141.7" style="enable-background:new 0 0 141.7 141.7;" xml:space="preserve">
<style type="text/css">
	.st0{fill:#F5F5F5;}
</style>
<g>
	<path class="st0" d="M70.9,2.9C33.5,2.9,3.1,33.3,3.1,70.6c0,37.3,30.4,67.7,67.7,67.7c37.3,0,67.7-30.4,67.7-67.7
		C138.6,33.3,108.2,2.9,70.9,2.9L70.9,2.9z M87.7,73h-11v39.3H60.4V73h-7.8V59.1h7.8v-9c0-6.4,3.1-16.5,16.5-16.5l12.1,0.1v13.5
		h-8.8c-1.4,0-3.5,0.7-3.5,3.8v8.2h12.4L87.7,73z M87.7,73"/>
</g>
</svg>
