<?xml version="1.0" encoding="utf-8"?>
<!-- Generator: Adobe Illustrator 22.1.0, SVG Export Plug-In . SVG Version: 6.00 Build 0)  -->
<svg version="1.1" id="Lag_1" xmlns="http://www.w3.org/2000/svg" xmlns:xlink="http://www.w3.org/1999/xlink" x="0px" y="0px"
	 viewBox="0 0 141.7 141.7" style="enable-background:new 0 0 141.7 141.7;" xml:space="preserve">
<style type="text/css">
	.st0{fill:#F5F5F5;}
</style>
<g>
	<path class="st0" d="M70.9,84.2c7.5,0,13.6-6.1,13.6-13.6c0-3-1-5.7-2.6-8c-2.5-3.4-6.5-5.7-11.1-5.7c-4.5,0-8.6,2.2-11.1,5.7
		c-1.6,2.2-2.6,5-2.6,8C57.2,78.1,63.3,84.2,70.9,84.2L70.9,84.2z M70.9,84.2"/>
	<path class="st0" d="M100.7,53.9V40.8h-1.7l-11.4,0l0.1,13.1L100.7,53.9z M100.7,53.9"/>
	<path class="st0" d="M70.9,2.4C33.3,2.4,2.7,33,2.7,70.6c0,37.6,30.6,68.2,68.2,68.2c37.6,0,68.2-30.6,68.2-68.2
		C139,33,108.4,2.4,70.9,2.4L70.9,2.4z M109.6,62.6v31.7c0,8.3-6.7,15-15,15H47.1c-8.3,0-15-6.7-15-15V46.8c0-8.3,6.7-15,15-15h47.6
		c8.3,0,15,6.7,15,15V62.6z M109.6,62.6"/>
	<path class="st0" d="M92.1,70.6c0,11.7-9.5,21.2-21.2,21.2c-11.7,0-21.2-9.5-21.2-21.2c0-2.8,0.6-5.5,1.6-8H39.6v31.7
		c0,4.1,3.3,7.4,7.4,7.4h47.6c4.1,0,7.4-3.3,7.4-7.4V62.6H90.5C91.5,65.1,92.1,67.8,92.1,70.6L92.1,70.6z M92.1,70.6"/>
</g>
</svg>
