<?xml version="1.0" encoding="utf-8"?>
<!-- Generator: Adobe Illustrator 22.1.0, SVG Export Plug-In . SVG Version: 6.00 Build 0)  -->
<svg version="1.1" id="Lag_1" xmlns="http://www.w3.org/2000/svg" xmlns:xlink="http://www.w3.org/1999/xlink" x="0px" y="0px"
	 viewBox="0 0 141.7 141.7" style="enable-background:new 0 0 141.7 141.7;" xml:space="preserve">
<style type="text/css">
	.st0{fill:#F5F5F5;}
</style>
<g>
	<path class="st0" d="M83.3,60.9c-5.9,0-8.5,3.2-9.9,5.5v-4.7h-11c0.1,3.1,0,33.2,0,33.2h11V76.3c0-1,0.1-2,0.4-2.7
		c0.8-2,2.6-4,5.7-4c4,0,5.6,3,5.6,7.5v17.8h11V75.8C96.1,65.6,90.6,60.9,83.3,60.9L83.3,60.9z M73.4,66.5L73.4,66.5
		c-0.1,0,0-0.1,0-0.1V66.5z M73.4,66.5"/>
	<rect x="45.2" y="61.6" class="st0" width="11" height="33.2"/>
	<path class="st0" d="M70.9,2.1C33.1,2.1,2.4,32.8,2.4,70.6c0,37.8,30.7,68.5,68.5,68.5c37.8,0,68.5-30.7,68.5-68.5
		C139.3,32.8,108.6,2.1,70.9,2.1L70.9,2.1z M107.2,101.6c0,2.9-2.4,5.3-5.4,5.3H39.5c-3,0-5.4-2.4-5.4-5.3v-63
		c0-2.9,2.4-5.3,5.4-5.3h62.3c3,0,5.4,2.4,5.4,5.3V101.6z M107.2,101.6"/>
	<path class="st0" d="M50.8,45.6c-3.8,0-6.2,2.5-6.2,5.7c0,3.2,2.4,5.7,6.1,5.7h0.1c3.9,0,6.2-2.5,6.2-5.7
		C56.9,48.1,54.6,45.6,50.8,45.6L50.8,45.6z M50.8,45.6"/>
</g>
</svg>
